<svg width="20" height="21" viewBox="0 0 20 21" fill="none" xmlns="http://www.w3.org/2000/svg">
<path opacity="0.9" d="M10.0028 10.5C9.73755 10.5 9.48319 10.3946 9.29566 10.2071C9.10812 10.0196 9.00276 9.76522 9.00276 9.5C9.00276 9.23478 9.10812 8.98043 9.29566 8.79289C9.48319 8.60536 9.73755 8.5 10.0028 8.5C10.268 8.5 10.5223 8.60536 10.7099 8.79289C10.8974 8.98043 11.0028 9.23478 11.0028 9.5C11.0028 9.76522 10.8974 10.0196 10.7099 10.2071C10.5223 10.3946 10.268 10.5 10.0028 10.5ZM10.0028 10.5V13M10.0028 1.5C12.3386 3.56658 15.3872 4.64257 18.5028 4.5C18.9564 6.04302 19.0951 7.66147 18.9109 9.25918C18.7266 10.8569 18.2231 12.4013 17.4302 13.8005C16.6373 15.1998 15.5712 16.4254 14.2952 17.4045C13.0193 18.3836 11.5596 19.0962 10.0028 19.5C8.44598 19.0962 6.98624 18.3836 5.71031 17.4045C4.43437 16.4254 3.36827 15.1998 2.57536 13.8005C1.78245 12.4013 1.2789 10.8569 1.09464 9.25918C0.910381 7.66147 1.04917 6.04302 1.50276 4.5C4.61829 4.64257 7.66693 3.56658 10.0028 1.5Z" stroke="#A3AEBD" stroke-width="1.6" stroke-linecap="round" stroke-linejoin="round"/>
</svg>
